# xmcd
#
# Track frame offsets: 
#        150
#        7122
#        21407
#        39490
#        57807
#        97287
#        109327
#        138017
#        154125
#        181187
#
# Disc length: 2790 seconds
#
# Revision: 2
# Processed by: cddbd v1.5.1PL0 Copyright (c) Steve Scherf et al.
# Submitted via: ExactAudioCopy v0.95a3
#
DISCID=820ae40a
DTITLE=Ashit Desai - Shivoham
DYEAR=2001
DGENRE=Devotional
TTITLE0=Introduction (English)
TTITLE1=Pratah Smaran
TTITLE2=Shiva Stuti
TTITLE3=Shiva Manas Puja
TTITLE4=Shivashtak
TTITLE5=Shiva Shadakshar Stotra
TTITLE6=Lingashtakam
TTITLE7=Shiva Panchakshar Stotra
TTITLE8=Rudrashtak
TTITLE9=Shiva Tandav Stotra
EXTD=Released 2001 by Times Music, India
EXTT0=
EXTT1=
EXTT2=
EXTT3=
EXTT4=
EXTT5=
EXTT6=
EXTT7=
EXTT8=
EXTT9=
PLAYORDER=
